<svg id="Capa_1" enable-background="new 0 0 512 512" height="512" viewBox="0 0 512 512" width="512" xmlns="http://www.w3.org/2000/svg"><g><g><path clip-rule="evenodd" d="m262.458 111.456c-80.97 1.332-161.94 61.744-161.94 180.952h323.88c0-119.208-80.97-179.619-161.94-180.952z" fill="#6d80aa" fill-rule="evenodd"/></g><g><path clip-rule="evenodd" d="m424.398 292.408-22.366 32.063 19.306 41.758c20.593.283 43.931-20.752 43.931-41.361v-16.131c0-8.987-7.408-16.329-16.474-16.329z" fill="#ffbc85" fill-rule="evenodd"/></g><g><path clip-rule="evenodd" d="m59.675 308.737v16.131c0 20.61 23.339 41.645 43.903 41.361l24.511-36.91-27.572-36.911h-24.396c-9.038 0-16.446 7.343-16.446 16.329z" fill="#ffbc85" fill-rule="evenodd"/></g><g><path clip-rule="evenodd" d="m256.08 111.683c68.815 13.352 130.393 70.561 132.938 171.455 8.752 4.678 19.992 8.221 35.38 9.27 0-119.208-80.97-179.62-161.94-180.952-2.117.029-4.233.114-6.378.227z" fill="#49679b" fill-rule="evenodd"/></g><g><path clip-rule="evenodd" d="m201.537 249.828c-45.219-11.538-35.466 38.044-101.019 42.58v49.101c0 8.023 1.058 16.301 3.06 24.72 12.384 52.049 60.835 108.549 118.323 129.669 14.672 5.415 27.629 8.108 40.557 8.108 12.956 0 25.884-2.693 40.557-8.108 57.488-21.12 105.967-77.62 118.323-129.669 2.002-8.42 3.06-16.698 3.06-24.72v-49.101c-65.554-4.536-55.772-54.118-101.019-42.58-34.979 8.93-47.907 13.409-60.921 13.409-12.985 0-25.942-4.479-60.921-13.409z" fill="#ffe5c1" fill-rule="evenodd"/></g><g><path clip-rule="evenodd" d="m389.075 289.63.029 49.101c0 7.994-1.058 16.301-3.06 24.72-12.385 52.049-60.864 108.549-118.324 129.669-10.926 4.026-20.879 6.52-30.603 7.569 8.752 2.211 17.046 3.317 25.341 3.317 12.956 0 25.884-2.693 40.557-8.108 57.488-21.12 105.967-77.62 118.323-129.669 2.002-8.42 3.06-16.698 3.06-24.72v-49.101c-15.387-1.049-26.628-4.593-35.38-9.27.057 2.155.057 4.309.057 6.492z" fill="#fed1a3" fill-rule="evenodd"/></g><g><path clip-rule="evenodd" d="m351.007 194.264c30.089 15.932 68.328 11.34 93.698-13.806 31.061-30.787 31.061-80.681 0-111.44-31.032-30.787-81.37-30.787-112.431 0-25.369 25.146-30.003 63.048-13.929 92.872l-7.064 36.429c-.658 3.374-.715 3.657 2.689 3.005z" fill="#fdb440" fill-rule="evenodd"/></g><g><path clip-rule="evenodd" d="m189.925 191.968c-37.496 19.873-85.203 14.146-116.865-17.208-38.726-38.385-38.726-100.639 0-139.024s101.534-38.385 140.26 0c31.633 31.382 37.41 78.669 17.361 115.863l8.838 45.444c.801 4.196.887 4.564-3.404 3.742z" fill="#fdb440" fill-rule="evenodd"/></g><g><path clip-rule="evenodd" d="m242.036 113.044c2.231-27.669-7.351-56.131-28.716-77.308-31.461-31.156-78.767-37.024-116.177-17.577 29.087-3.374 59.376 6.01 81.685 28.122 20.879 20.695 30.518 48.335 28.859 75.437-.829 13.948-4.662 27.754-11.498 40.397l6.264 32.233 33.664 6.435c4.29.822 4.204.454 3.404-3.742l-8.838-45.444c6.491-12.075 10.295-25.229 11.353-38.553z" fill="#fe9900" fill-rule="evenodd"/></g><g><path clip-rule="evenodd" d="m444.705 180.458c31.061-30.787 31.061-80.681 0-111.44-19.02-18.852-45.276-26.166-69.901-21.914 15.559 2.665 30.489 9.979 42.53 21.914 31.032 30.759 31.032 80.653 0 111.44-5.12 5.074-10.754 9.299-16.732 12.7-8.094 4.593-16.846 7.654-25.798 9.213 10.039 1.729 20.335 1.531 30.317-.567 14.5-3.061 28.315-10.177 39.584-21.346z" fill="#fe9900" fill-rule="evenodd"/></g><g><path d="m244.289 429.792c-3.821 1.598-5.622 5.989-4.023 9.807s5.994 5.616 9.814 4.02c8.831-3.695 21.994-.706 27.617 6.265 1.482 1.837 3.653 2.792 5.845 2.792 1.651 0 3.314-.543 4.701-1.659 3.225-2.598 3.732-7.315 1.134-10.538-9.824-12.182-30.051-16.974-45.088-10.687z"/><path d="m367.567 111.75c4.142 0 7.5-3.355 7.5-7.494v-7.201c0-6.043 5.001-10.961 11.148-10.961 6.132 0 11.12 4.917 11.12 10.961v7.201c0 1.932-2.792 5.237-5.255 8.153-4.158 4.921-9.332 11.046-9.332 19.204v11.339c0 4.14 3.357 7.494 7.5 7.494s7.5-3.355 7.5-7.494v-11.339c0-2.677 2.945-6.163 5.794-9.535 4.121-4.879 8.793-10.408 8.793-17.822v-7.201c0-14.309-11.717-25.949-26.119-25.949-14.417 0-26.147 11.641-26.147 25.949v7.201c-.001 4.139 3.356 7.494 7.498 7.494z"/><path d="m390.277 162.474c-4.142 0-7.5 3.355-7.5 7.494v.028c0 4.14 3.357 7.481 7.5 7.481s7.5-3.37 7.5-7.509c-.001-4.139-3.358-7.494-7.5-7.494z"/><path d="m169.224 80.215v-8.958c0-16.841-13.783-30.542-30.723-30.542-16.957 0-30.753 13.701-30.753 30.542v8.958c0 4.14 3.358 7.494 7.5 7.494s7.5-3.355 7.5-7.494v-8.958c0-8.576 7.067-15.553 15.753-15.553 8.67 0 15.724 6.977 15.724 15.553v8.958c0 3.077-3.549 7.281-6.981 11.345-5.254 6.223-11.209 13.275-11.209 22.788v14.117c0 4.139 3.358 7.494 7.5 7.494s7.5-3.355 7.5-7.494v-14.117c0-4.034 3.727-8.448 7.674-13.122 4.927-5.838 10.515-12.456 10.515-21.011z"/><path d="m143.563 154.678c-4.142 0-7.5 3.355-7.5 7.494v.057c0 4.14 3.358 7.466 7.5 7.466s7.5-3.383 7.5-7.523-3.359-7.494-7.5-7.494z"/><path d="m306.817 301.284c12.777-4.198 31.626-.494 39.8 12.819 1.416 2.305 3.878 3.575 6.399 3.575 1.338 0 2.692-.357 3.916-1.108 3.53-2.164 4.636-6.78 2.47-10.308-12.167-19.814-38.673-25.332-57.272-19.216-3.934 1.293-6.075 5.529-4.78 9.461 1.292 3.931 5.528 6.069 9.467 4.777z"/><g><path d="m334.417 350.858c-4.264 0-7.721-3.459-7.721-7.726v-5.853c0-4.268 3.457-7.726 7.721-7.726s7.721 3.459 7.721 7.726v5.853c0 4.267-3.457 7.726-7.721 7.726z"/></g><g><path d="m207.417 350.858c-4.264 0-7.721-3.459-7.721-7.726v-5.853c0-4.268 3.457-7.726 7.721-7.726s7.721 3.459 7.721 7.726v5.853c0 4.267-3.457 7.726-7.721 7.726z"/></g><path d="m448.795 285.413h-17.012c-.812-28.609-6.279-54.89-16.161-78.161 12.88-4.157 24.569-11.272 34.359-20.974 16.459-16.318 25.519-38.002 25.519-61.075 0-23.053-9.07-44.717-25.509-61.005-33.899-33.625-89.077-33.625-122.995 0-12.68 12.561-20.969 28.269-24.119 45.626-12.99-3.318-26.499-5.136-40.298-5.366h-.24c-4.2.07-8.37.29-12.51.649-.01-4.736-.35-9.473-1.02-14.17-3.25-22.883-13.689-43.638-30.209-60.025-41.578-41.219-109.236-41.219-150.834.01-6.02 5.996-11.29 12.631-15.669 19.715-2.18 3.517-1.09 8.134 2.44 10.312 3.52 2.178 8.14 1.089 10.32-2.438 3.77-6.086 8.31-11.801 13.489-16.958 35.759-35.444 93.937-35.444 129.695 0 18.069 17.917 27.319 41.579 26.939 65.491-.08 5.216-.62 10.452-1.63 15.638-1.72 8.844-4.79 17.557-9.27 25.861-.82 1.519-1.09 3.288-.76 4.986l7.61 39.131-39.599-7.554c-1.68-.32-3.41-.06-4.92.739-17.039 9.023-36.209 12.171-54.668 9.833-5.19-.639-10.33-1.719-15.339-3.238-14.1-4.227-27.249-11.801-38.059-22.503-21.889-21.694-31.199-52.621-24.909-82.729.84-4.057-1.76-8.024-5.81-8.873-4.05-.839-8.03 1.759-8.88 5.806-7.33 35.104 3.52 71.147 29.039 96.438 11.96 11.851 26.229 20.535 41.948 25.661-10.16 23.519-15.776 50.148-16.601 79.17h-17.011c-13.204 0-23.945 10.687-23.945 23.824v16.131c0 11.216 5.578 23.147 15.305 32.734 8.731 8.605 19.654 14.216 30.18 15.71 5.237 18.695 14.798 38.003 28.155 56.471 1.466 2.027 3.759 3.105 6.085 3.105 1.522 0 3.058-.463 4.387-1.421 3.357-2.425 4.112-7.11 1.685-10.465-19.316-26.708-29.954-54.94-29.954-79.495v-42.3c31.245-3.876 45.23-17.996 56.614-29.493 10.62-10.742 17.029-17.217 35.049-12.631 8.17 2.089 15.089 3.917 21.199 5.536 20.409 5.396 30.659 8.114 41.578 8.114 10.93 0 21.159-2.708 41.528-8.104 6.12-1.619 13.06-3.447 21.249-5.536 18.029-4.607 24.439 1.878 35.069 12.621 11.374 11.497 25.35 25.617 56.593 29.492v42.3c0 55.715-54.426 124.573-116.482 147.359-14.13 5.215-26.192 7.644-37.958 7.644s-23.827-2.429-37.969-7.648c-23.5-8.634-46.384-23.795-66.178-43.843-2.909-2.947-7.657-2.978-10.606-.071-2.948 2.907-2.98 7.652-.071 10.599 21.334 21.608 46.12 37.993 71.669 47.38 15.847 5.849 29.56 8.573 43.155 8.573s27.308-2.724 43.143-8.568c33.259-12.213 64.892-36.091 89.074-67.24 15.496-19.959 26.661-41.574 32.521-62.371 10.559-1.481 21.52-7.1 30.273-15.727 9.723-9.584 15.3-21.512 15.3-32.726v-16.131c0-13.132-10.755-23.82-23.974-23.82zm-370.782 62.017c-6.887-6.789-10.838-14.83-10.838-22.062v-16.131c0-4.871 4.013-8.835 8.946-8.835h16.897v41.606c0 5.092.397 10.309 1.172 15.613-5.653-1.916-11.372-5.455-16.177-10.191zm239.233-233.248c2.3-14.509 9.17-28.309 20.309-39.341 28.099-27.849 73.797-27.849 101.866 0 13.59 13.45 21.079 31.347 21.079 50.373 0 19.036-7.48 36.942-21.079 50.423-8.71 8.633-19.129 14.689-30.269 18.016-5.06 1.509-10.26 2.458-15.519 2.828-13.2.929-26.729-1.779-39.119-8.334-1.08-.58-2.29-.879-3.51-.879-.47 0-.94.05-1.4.14l-29.569 5.626 5.67-29.218c.33-1.699.06-3.457-.76-4.976-4.94-9.173-7.71-18.986-8.39-28.809-.379-5.317-.139-10.633.691-15.849zm53.718 145.491c-11.34-11.471-23.069-23.333-49.438-16.608-8.26 2.108-15.229 3.957-21.369 5.576-19.129 5.066-28.719 7.604-37.699 7.604-8.97 0-18.579-2.548-37.749-7.614-6.13-1.629-13.08-3.467-21.319-5.566-26.349-6.725-38.079 5.136-49.428 16.608-9.93 10.043-21.069 21.294-45.808 24.891.95-28.788 6.85-53.63 16.319-74.664 1.26.22 2.53.42 3.8.599 4.89.679 9.82 1.009 14.749 1.009 16.629 0 33.219-3.827 48.028-11.202l43.648 8.334c2.6.5 6.95 1.339 10.28-1.988 3.29-3.288 2.53-7.265 1.9-10.542l-8.33-42.868c5.22-10.322 8.67-21.504 10.27-32.956 4.55-.48 9.11-.759 13.64-.839 13 .23 26.169 2.078 39.049 5.626-.01 13.29 3.06 26.55 8.98 38.441l-6.57 33.875c-.51 2.618-1.28 6.575 1.92 9.783 3.22 3.218 7.33 2.428 9.54 2.009l34.519-6.575c11.97 5.866 25.339 8.914 38.729 8.914 4.02 0 8.05-.28 12.039-.829.04-.01.08-.01.12-.02 9.27 20.865 15.039 45.456 15.979 73.895-24.73-3.598-35.87-14.85-45.799-24.893zm86.805 65.695c0 7.23-3.949 15.268-10.834 22.054-4.819 4.751-10.57 8.306-16.245 10.22.792-5.328 1.207-10.556 1.207-15.634v-41.606h16.898c4.948 0 8.974 3.964 8.974 8.835z"/><path d="m215.607 287.047c-18.599-6.114-45.106-.597-57.272 19.216-2.166 3.528-1.061 8.143 2.47 10.308 1.224.75 2.578 1.108 3.915 1.108 2.522 0 4.984-1.271 6.4-3.575 8.173-13.312 27.021-17.018 39.801-12.819 3.932 1.297 8.173-.845 9.467-4.777s-.846-8.168-4.781-9.461z"/></g></g></svg>