<svg id="Capa_1" enable-background="new 0 0 511.973 511.973" height="512" viewBox="0 0 511.973 511.973" width="512" xmlns="http://www.w3.org/2000/svg"><g><g><path d="m362.716 257.867c-20.971-7.726-37.501-24.257-45.228-45.228-2.477-6.724-.819-14.275 4.248-19.343l-243.043 242.985c-5.067 5.067-6.726 12.618-4.248 19.343 7.726 20.971 24.257 37.501 45.228 45.228 6.724 2.477 14.275.819 19.343-4.248l242.194-242.194c-5.039 4.439-12.135 5.8-18.494 3.457z" fill="#4ab7ff"/><path d="m437.528 182.995c-7.726-20.971-24.257-37.501-45.228-45.228-6.724-2.477-14.275-.819-19.343 4.248l-51.222 51.281c-5.067 5.067-6.726 12.618-4.248 19.343 7.726 20.971 24.257 37.501 45.228 45.228 6.359 2.343 13.455.982 18.493-3.458.289-.255.574-.515.849-.79l51.222-51.281c5.068-5.068 6.727-12.619 4.249-19.343z" fill="#fff398"/><path d="m207.358 185.084c14.926 4.258 26.592 15.924 30.85 30.85.897 3.143 5.351 3.143 6.247 0 4.258-14.926 15.924-26.592 30.85-30.85 3.143-.896 3.143-5.351 0-6.247-14.925-4.258-26.592-15.924-30.85-30.85-.897-3.143-5.35-3.143-6.247 0-4.258 14.925-15.924 26.592-30.849 30.849-3.144.898-3.144 5.352-.001 6.248z" fill="#dcaee7"/><path d="m116.39 118.623c18.812 5.366 33.517 20.071 38.883 38.883 1.13 3.961 6.744 3.961 7.874 0 5.366-18.812 20.071-33.517 38.883-38.883 3.961-1.13 3.961-6.744 0-7.874-18.812-5.366-33.516-20.071-38.883-38.883-1.13-3.961-6.744-3.961-7.874 0v.001c-5.366 18.812-20.071 33.516-38.883 38.883h-.001c-3.96 1.129-3.96 6.743.001 7.873z" fill="#4ab7ff"/><path d="m237.778 73.16c23.9 6.818 42.581 25.499 49.399 49.398 1.436 5.032 8.567 5.032 10.003 0 6.818-23.9 25.499-42.581 49.398-49.398 5.032-1.436 5.032-8.567 0-10.003h-.001c-23.899-6.818-42.58-25.499-49.398-49.398v-.001c-1.436-5.032-8.567-5.032-10.003 0v.001c-6.818 23.899-25.499 42.58-49.398 49.398h-.001c-5.032 1.436-5.031 8.568.001 10.003z" fill="#b4bdd1"/></g><g><path d="m446.912 179.538c-9.406-25.53-30.424-44.448-52.207-51.518-10.083-3.269-21.282-.611-28.818 6.924l-294.265 294.265c-7.798 7.798-10.374 19.523-6.561 29.871 8.753 23.757 27.398 42.402 51.154 51.154 10.347 3.813 22.074 1.236 29.871-6.561 22.374-22.37 271.934-271.916 294.266-294.265 7.781-7.781 10.379-19.504 6.56-29.87zm-18.767 6.913c1.128 3.064.358 6.521-1.94 8.819l-51.83 51.83c-2.276 1.863-5.409 2.411-8.202 1.383-18.252-6.725-32.577-21.05-39.301-39.301-1.125-3.054-.365-6.514 1.94-8.819 55.324-55.387 51.516-51.852 53.215-52.751 1.307-.496 3.367-1.634 6.607-.536 16.627 5.653 32.383 20.03 39.511 39.375zm-296.201 303.081c-2.302 2.301-5.763 3.06-8.814 1.936-18.252-6.725-32.577-21.049-39.301-39.301-1.125-3.054-.365-6.514 1.936-8.815l223.728-223.729c8.745 20.88 25.287 37.438 46.156 46.204z"/><path d="m204.615 194.7c11.681 3.333 20.645 12.296 23.977 23.977 3.647 12.786 21.825 12.813 25.479 0 3.333-11.681 12.296-20.645 23.977-23.977 12.788-3.647 12.811-21.825 0-25.479-11.681-3.333-20.644-12.295-23.977-23.977-3.647-12.788-21.825-12.811-25.479 0-3.333 11.681-12.296 20.644-23.977 23.977-12.786 3.647-12.813 21.825 0 25.479zm36.717-29.471c4.285 6.746 9.986 12.447 16.731 16.731-6.746 4.285-12.447 9.986-16.731 16.731-4.285-6.746-9.985-12.447-16.731-16.731 6.745-4.284 12.446-9.985 16.731-16.731z"/><path d="m113.647 128.24c15.595 4.449 27.561 16.415 32.01 32.01 3.879 13.602 23.218 13.632 27.106 0 4.449-15.595 16.416-27.561 32.011-32.01 13.601-3.881 13.632-23.217-.001-27.106-15.595-4.449-27.561-16.416-32.01-32.01-3.88-13.603-23.218-13.634-27.106 0-4.449 15.594-16.416 27.561-32.01 32.009-13.602 3.88-13.635 23.216 0 27.107zm45.563-39.765c6.064 11.082 15.129 20.146 26.21 26.211-11.082 6.064-20.146 15.128-26.21 26.21-6.065-11.082-15.129-20.146-26.211-26.21 11.082-6.065 20.146-15.129 26.211-26.211z"/><path d="m235.035 82.776c20.718 5.911 36.615 21.808 42.525 42.526 4.185 14.674 25.043 14.699 29.235 0 5.911-20.718 21.808-36.615 42.525-42.525 14.671-4.184 14.704-25.042 0-29.235-20.717-5.911-36.614-21.808-42.525-42.525-4.184-14.671-25.042-14.704-29.235 0-5.91 20.717-21.808 36.614-42.525 42.525-14.671 4.183-14.705 25.04 0 29.234zm57.143-53.901c8.1 17.351 21.933 31.184 39.284 39.284-17.352 8.1-31.184 21.933-39.284 39.284-8.1-17.352-21.933-31.184-39.284-39.284 17.351-8.101 31.184-21.933 39.284-39.284z"/><path d="m165.684 381.693c-5.523 0-10 4.477-10 10s4.477 10 10 10h.025c5.523 0 9.987-4.477 9.987-10s-4.489-10-10.012-10z"/><path d="m133.448 410.008-23.935 24.145c-3.888 3.922-3.86 10.254.062 14.142 3.919 3.885 10.25 3.864 14.142-.062l23.935-24.145c3.888-3.922 3.86-10.254-.062-14.142-3.921-3.888-10.254-3.86-14.142.062z"/></g></g></svg>