<svg id="Layer_1" enable-background="new 0 0 512.043 512.043" height="512" viewBox="0 0 512.043 512.043" width="512" xmlns="http://www.w3.org/2000/svg"><g><path d="m496.263 192.21c-22.77-85.95-90.45-153.62-176.4-176.39-13.64-3.62-27.75-6.1-42.21-7.35-7.12-.62-14.33-.93-21.61-.93-22.06 0-43.46 2.88-63.82 8.28-85.95 22.77-153.63 90.44-176.4 176.39-5.4 20.37-8.28 41.76-8.28 63.83 0 22.06 2.88 43.45 8.27 63.81 22.77 85.96 90.45 153.64 176.41 176.41 20.36 5.4 41.76 8.28 63.82 8.28 7.29 0 14.49-.31 21.61-.93 14.47-1.25 28.57-3.73 42.22-7.35 85.95-22.78 153.63-90.46 176.4-176.41 5.39-20.36 8.27-41.75 8.27-63.81 0-22.07-2.88-43.46-8.28-63.83zm-240.22 205.701c-18.18 0-35.55-3.42-51.52-9.65-36.91-14.39-66.32-43.8-80.71-80.71-6.22-15.97-9.64-33.34-9.64-51.51 0-18.18 3.42-35.56 9.65-51.53 14.39-36.9 43.79-66.3 80.69-80.69 15.97-6.23 33.35-9.65 51.53-9.65s35.56 3.42 51.53 9.65c36.9 14.39 66.3 43.79 80.69 80.69 6.23 15.97 9.65 33.35 9.65 51.53s-3.42 35.55-9.64 51.52c-14.4 36.91-43.8 66.31-80.7 80.7-15.97 6.229-33.35 9.65-51.53 9.65z" fill="#ff7680"/><path d="m504.543 256.04c0 22.06-2.88 43.45-8.27 63.81-22.77 85.95-90.45 153.63-176.4 176.41-13.65 3.62-27.75 6.1-42.22 7.35 112.78-25.92 196.89-126.93 196.89-247.57s-84.11-221.65-196.89-247.57c14.46 1.25 28.57 3.73 42.21 7.35 85.95 22.77 153.63 90.44 176.4 176.39 5.4 20.37 8.28 41.76 8.28 63.83z" fill="#f44d90"/><g fill="#eef7ff"><path d="m319.873 496.26c-20.37 5.4-41.76 8.28-63.83 8.28-22.06 0-43.46-2.88-63.82-8.28l12.3-108c15.97 6.23 33.34 9.65 51.52 9.65s35.56-3.42 51.53-9.65z"/><path d="m114.173 256.04c0 18.17 3.42 35.54 9.64 51.51l-108 12.3c-5.39-20.36-8.27-41.75-8.27-63.81 0-22.07 2.88-43.46 8.28-63.83l108 12.3c-6.23 15.97-9.65 33.351-9.65 51.53z"/><path d="m504.543 256.04c0 22.06-2.88 43.45-8.27 63.81l-28.98-3.3-79.02-8.99c6.22-15.97 9.64-33.34 9.64-51.52s-3.42-35.56-9.65-51.53l79.02-9 28.98-3.3c5.4 20.37 8.28 41.76 8.28 63.83z"/></g><path d="m504.543 256.04c0 22.06-2.88 43.45-8.27 63.81l-28.98-3.3c4.74-19.39 7.25-39.66 7.25-60.51 0-20.86-2.51-41.13-7.26-60.53l28.98-3.3c5.4 20.37 8.28 41.76 8.28 63.83z" fill="#d8e5ef"/><path d="m319.863 15.82-12.29 108c-15.97-6.23-33.35-9.65-51.53-9.65s-35.56 3.42-51.53 9.65l-12.29-108c20.36-5.4 41.76-8.28 63.82-8.28s43.46 2.88 63.82 8.28z" fill="#eef7ff"/></g><g><path d="m453.469 419.032c37.927-45.775 58.574-102.794 58.574-162.992 0-60.164-20.623-117.154-58.51-162.915l13.37-13.368c11.049-11.049 11.049-29.027 0-40.076s-29.027-11.048-40.076.001l-13.993 13.993c-6.639-5.157-13.503-10-20.585-14.458-3.504-2.202-8.134-1.154-10.343 2.353-2.206 3.505-1.153 8.136 2.353 10.343 15.191 9.562 29.389 20.905 42.197 33.716 28.429 28.428 48.879 62.708 60.229 100.123l-93.704 10.668c-15.08-34.501-42.825-62.244-77.328-77.321l10.662-93.647c9.301 2.836 18.464 6.236 27.442 10.214 3.781 1.68 8.216-.03 9.896-3.818 1.678-3.787-.032-8.217-3.819-9.896-46.756-20.718-98.191-26.928-148.747-17.955-42.385 7.523-81.623 25.376-114.926 52.085l-13.647-13.646c-11.049-11.049-29.027-11.049-40.076 0s-11.049 29.027 0 40.076l13.646 13.646c-27.352 34.09-45.384 74.34-52.589 117.868-8.567 51.761-1.312 104.088 20.983 151.323 1.279 2.712 3.976 4.301 6.787 4.301 1.072 0 2.162-.231 3.196-.72 3.746-1.768 5.35-6.237 3.581-9.983-5.017-10.63-9.216-21.537-12.605-32.643l93.658-10.663c15.078 34.51 42.825 62.26 77.334 77.341l-10.668 93.703c-37.419-11.35-71.702-31.802-100.132-60.232-11.828-11.827-22.423-24.856-31.489-38.726-2.266-3.467-6.915-4.443-10.381-2.174-3.468 2.267-4.44 6.914-2.174 10.381 4.863 7.44 10.142 14.649 15.791 21.582l-13.566 13.566c-11.049 11.049-11.049 29.027 0 40.075 5.352 5.353 12.468 8.301 20.038 8.301 7.569 0 14.686-2.948 20.037-8.3l13.88-13.88c44.947 35.495 100.128 54.762 158.276 54.762 57.484 0 112.072-18.825 156.736-53.547l15.42 15.419c5.352 5.353 12.468 8.301 20.037 8.301 7.57 0 14.687-2.948 20.038-8.3 11.049-11.049 11.049-29.027 0-40.075zm-29.01-355.769 12.974-12.974c5.199-5.201 13.662-5.201 18.861 0 5.201 5.2 5.201 13.661.001 18.861l-12.687 12.686c-2.141-2.301-4.313-4.58-6.546-6.814-4.067-4.068-8.282-7.978-12.603-11.759zm66.149 137.139c4.239 18.022 6.435 36.66 6.435 55.638 0 18.971-2.194 37.601-6.43 55.617l-92.167-10.493c4.576-14.459 6.964-29.656 6.964-45.125 0-15.729-2.451-30.895-6.979-45.145zm-276.9-181.636c32.835-5.827 66.061-4.852 97.961 2.712l-10.493 92.171c-14.246-4.526-29.408-6.975-45.133-6.975s-30.887 2.45-45.133 6.975l-10.49-92.137c4.39-1.036 8.82-1.953 13.288-2.746zm-94.603 177.653-93.645-10.661c11.414-37.656 31.878-71.839 60.17-100.13 28.256-28.257 62.472-48.743 100.142-60.168l10.66 93.638c-34.502 15.077-62.247 42.82-77.327 77.321zm-66.059-124.514c-5.201-5.2-5.201-13.661 0-18.861 5.199-5.201 13.662-5.201 18.861 0l12.795 12.795c-3.292 2.971-6.523 6.028-9.678 9.183-3.156 3.156-6.211 6.387-9.183 9.679zm-31.585 239.754c-7.339-30.95-8.466-63.18-3.168-95.184.896-5.413 1.98-10.769 3.229-16.068l92.132 10.489c-4.528 14.25-6.979 29.415-6.979 45.145 0 15.721 2.449 30.88 6.972 45.124zm100.214-55.619c0-74.09 60.277-134.367 134.367-134.367s134.368 60.278 134.368 134.367c0 33.446-12.364 65.496-34.815 90.246-2.783 3.068-2.553 7.812.516 10.594 3.067 2.782 7.812 2.554 10.594-.516 11.043-12.174 19.886-25.938 26.32-40.719l93.667 10.664c-11.349 37.423-31.802 71.71-60.236 100.144-28.43 28.431-62.713 48.883-100.132 60.232l-10.662-93.654c8.3-3.618 16.299-8.001 23.9-13.137 3.433-2.319 4.335-6.981 2.017-10.413-2.318-3.433-6.98-4.334-10.413-2.017-22.217 15.01-48.193 22.943-75.121 22.943-74.092.001-134.37-60.277-134.37-134.367zm-48.396 204.512c-2.519 2.519-5.867 3.906-9.43 3.906s-6.912-1.388-9.431-3.907c-5.201-5.2-5.201-13.661 0-18.862l12.804-12.804c2.544 2.776 5.136 5.511 7.801 8.176 3.643 3.643 7.387 7.147 11.206 10.541zm127.134 30.056 10.494-92.176c14.247 4.526 29.409 6.976 45.135 6.976 15.473 0 30.658-2.376 45.137-6.96l10.492 92.16c-18.02 4.238-36.655 6.433-55.629 6.433s-37.609-2.196-55.629-6.433zm257.254-27.301c-2.519 2.519-5.867 3.906-9.431 3.906-3.563 0-6.911-1.388-9.43-3.907l-14.412-14.412c4.33-3.791 8.561-7.728 12.667-11.834 2.211-2.211 4.36-4.466 6.479-6.742l14.125 14.127c5.203 5.2 5.203 13.661.002 18.862z"/></g></svg>